<svg width="198.756" height="85" xmlns="http://www.w3.org/2000/svg">

 <g>
  <title>Layer 1</title>
  <path id="svg_1" d="m-82,165l192.756,0l0,192.756l-192.756,0l0,-192.756z" fill="#fff" clip-rule="evenodd" fill-rule="evenodd"/>
  <path id="svg_2" d="m186.252,11.608l0,-1.507l-21.598,0l-1.021,0.676l0.328,0.85l22.291,-0.019z" clip-rule="evenodd" fill-rule="evenodd"/>
  <path id="svg_3" d="m147.879,5.713l0.385,4.388l0.115,1.526l0,3.17l4.609,0l0.385,-2.088l-2.467,0l0,-1.739l2.276,0l0,-1.874l-2.219,0l0,-1.218l2.025,0l0.385,-2.165l-5.494,0z" fill="#cc2229" clip-rule="evenodd" fill-rule="evenodd"/>
  <path id="svg_4" d="m148.379,11.627l-0.115,-1.526l-7.194,0l1.004,1.545l6.305,-0.019zm-11.82,0.019l-0.077,-1.545l-5.285,0l-0.963,0.831l0.309,0.714l6.016,0z" clip-rule="evenodd" fill-rule="evenodd"/>
  <path id="svg_5" d="m136.482,10.101l0.077,1.545l0.173,3.383l2.315,0l0.385,-2.609l1.697,2.609l3.123,0l-2.178,-3.383l-1.004,-1.545l3.182,-3.866l-3.219,-0.812l-1.504,2.126l0,-1.894l-3.279,0l0.232,4.446zm-5.285,0l0.521,-4.388l-7.23,0l0.326,4.388l0.117,1.546l0.23,3.382l2.564,0l0,-3.382l1.447,3.576l2.834,0l-1.465,-3.576l-0.309,-0.715l0.965,-0.831zm-3.625,-2.455l1.158,0l0.385,1.971l-1.582,0.483l0.039,-2.454z" fill="#cc2229" clip-rule="evenodd" fill-rule="evenodd"/>
  <path id="svg_6" d="m119.686,11.666l5.246,-0.02l-0.118,-1.545l-5.457,0l0.329,1.565z" clip-rule="evenodd" fill-rule="evenodd"/>
  <path id="svg_7" fill="#cc2229" clip-rule="evenodd" fill-rule="evenodd" d="m119.686,11.666l-0.328,-1.565l-0.945,-4.291l-3.143,0l-1.389,4.291l-0.5,1.565l-1.195,3.711l2.41,-0.097l1.117,-2.706l1.35,0l0.869,2.513l2.506,0l-0.752,-3.421zm-3.413,-1.565l0.365,-0.87l0.232,0.87l0.191,0.831l-1.156,0l0.368,-0.831z"/>
  <path id="svg_8" d="m116.639,9.23l-0.366,0.871l0.598,0l-0.232,-0.871zm-0.366,0.871l-0.367,0.831l1.156,0l-0.191,-0.831l-0.598,0zm42.018,1.526l-0.076,-1.526l-5.033,0l0,0.869l-2.276,0l0,0.657l7.385,0z" clip-rule="evenodd" fill-rule="evenodd"/>
  <path id="svg_9" fill="#cc2229" clip-rule="evenodd" fill-rule="evenodd" d="m158.215,10.101l0.076,1.527l0.193,3.363l2.023,0l0.482,-3.363l1.447,3.363l2.834,0l-1.311,-3.363l-0.328,-0.851l1.021,-0.676l0.098,-4.388l-6.809,0l0.274,4.388zm2.719,0l0.057,-2.744l1.158,0l0.385,2.067l-1.6,0.677zm-77.462,0l0.078,1.662l0.192,3.421l2.218,0l0.443,-3.382l1.292,3.382l2.893,0l-1.542,-3.499l-0.29,-0.657l0.964,-0.831l0.02,-0.097l0.367,-4.388l-6.884,0l0.249,4.389zm2.545,0.096l0.193,-2.551l0.964,0l0.482,2.126l-1.639,0.425z"/>
  <path id="svg_10" d="m83.549,11.763l-0.077,-1.662l-4.879,0l0,1.352l-2.41,0l0,0.387l7.366,-0.077z" clip-rule="evenodd" fill-rule="evenodd"/>
  <path id="svg_11" d="m78.342,7.936l0.54,-2.126l-5.842,0l0.154,4.291l0.077,1.777l0.116,3.441l4.86,-0.522l0.385,-2.088l-2.449,0l0,-1.256l2.41,0l0,-2.125l-2.314,0l0,-1.392l2.063,0z" fill="#cc2229" clip-rule="evenodd" fill-rule="evenodd"/>
  <path id="svg_12" d="m73.271,11.878l-0.077,-1.777l-6.402,0l-0.116,1.855l6.595,-0.078z" clip-rule="evenodd" fill-rule="evenodd"/>
  <path id="svg_13" d="m66.676,11.956l0.116,-1.855l0.096,-2.03l2.025,0l0.385,-2.261l-7.867,0l-0.424,2.126l2.603,0l0,7.286l2.892,0l0.174,-3.266zm-9.198,-4.02l0.135,-0.561l0.308,-1.469l-5.553,-0.057l0.385,9.335l2.527,-0.213l2.545,-0.232l0,-1.875l-2.7,0l0,-1.352l2.353,0l0,-1.895l-2.218,0l0,-1.681l2.218,0z" fill="#cc2229" clip-rule="evenodd" fill-rule="evenodd"/>
  <path id="svg_14" d="m57.613,7.375l-0.135,0.561l-2.218,0l0,1.681l2.218,0l0,1.895l-2.353,0l0,1.352l1.716,0l0.888,-0.869l5.881,0l0,-1.894l-5.592,0l0,-1.102l-1.022,-0.097l-0.038,-0.483l1.002,0.039l-0.347,-1.083zm55.768,4.291l0.5,-1.565l-5.205,0l-3.53,1.584l8.235,-0.019z" clip-rule="evenodd" fill-rule="evenodd"/>
  <path id="svg_15" fill="#cc2229" clip-rule="evenodd" fill-rule="evenodd" d="m105.146,11.685l3.529,-1.584l0,-4.484l-6.809,0l0.252,4.484l0.096,1.584l0.193,3.634l2.314,0l0.425,-3.634zm-0.269,-1.584l0.191,-2.416l0.908,0l0.385,1.836l-1.484,0.58z"/>
  <path id="svg_16" d="m102.215,11.685l-0.096,-1.584l-12.38,0l-0.02,0.096l-0.964,0.831l0.29,0.657l13.17,0zm-49.847,-5.836l-1.542,0.831c-0.752,-0.425 -1.735,-0.677 -2.989,-0.773l-0.424,4.967l-3.625,0.735l-0.386,3.479l-2.122,0l-0.443,-8.485l-3.548,-1.179l-2.699,1.836l2.063,1.005l1.254,-0.58l1.118,0.387l0,0.676l-4.532,0l-0.732,1.894l2.699,0.483l0,-0.773l1.601,0l0,0.87l-3.761,0.425l0,2.088l2.893,0l0,-0.735l1.582,0l0,0.676l-3.125,0.928l2.063,2.068l2.507,-0.58l-0.617,-0.773l1.157,-0.097c3.934,1.314 7.328,1.295 10.163,-0.039l1.022,0l-0.675,0.773l2.603,0.618l1.408,-1.604l-2.526,0.213l-0.387,-9.334z" clip-rule="evenodd" fill-rule="evenodd"/>
  <path id="svg_17" fill="#cc2229" clip-rule="evenodd" fill-rule="evenodd" d="m43.787,11.608l3.625,-0.735l0.424,-4.967l-7.038,0l0.038,0.696l0.443,8.485l2.121,0l0.387,-3.479zm0,-3.923l1.215,0.097l0,1.933l-1.215,0.444l0,-2.474z"/>
  <path id="svg_18" d="m45.002,7.781l-1.215,-0.096l0,2.473l1.215,-0.444l0,-1.933zm95.144,11.538l-0.715,2.339l1.061,38.655l0,6.764c-0.211,0.715 -0.443,1.198 -0.693,1.45l0,2.474l1.908,2.744c0.348,-0.772 0.521,-1.623 0.521,-2.551l0,-10.92c-1.041,-2.687 -1.195,-4.311 -0.482,-4.89c-1.369,-0.89 -1.369,-4.601 0,-11.114l-1.35,-5.024c-0.502,-0.87 -0.348,-1.43 0.443,-1.72c0.578,-0.212 1.061,-0.309 1.426,-0.271l0,-13.761l1.408,-3.846l-0.172,-0.521l-3.355,0.192z" clip-rule="evenodd" fill-rule="evenodd"/>
  <path id="svg_19" fill="#cc2229" clip-rule="evenodd" fill-rule="evenodd" d="m139.432,21.658l0.715,-2.339l0.693,-2.319l-7.713,0.387l-2.219,7.383l-0.926,3.073l-2.93,-8.291l-0.771,-2.146l-8.35,0l2.371,4.349l-0.443,13.046l-8.619,0c-1.023,1.604 -1.023,2.957 0,4.059l0,3.73l7.039,0l0.48,-2.416c0.541,-0.154 0.889,-0.812 1.061,-1.952l0.02,6.049l0,9.723c0.02,0.754 0.309,1.236 0.85,1.488c0.018,1.604 0.598,2.782 1.734,3.536l3.799,11.211l1.061,0l0,-26.054l2.314,5.934l0.676,1.739l0.809,-2.629l1.562,-5.141l0.328,9.181l0.057,1.584c0.752,1.373 1.484,2.532 2.219,3.44c0.02,1.256 0.404,2.3 1.195,3.132l0.539,1.062l0,3.383l2.256,2.898c0.193,0.039 0.387,-0.038 0.561,-0.231c0.25,-0.252 0.482,-0.735 0.693,-1.45l0,-6.764l-1.061,-38.655zm-0.057,-3.382l-1.197,3.189l0.926,45.13a3.621,3.621 0 0 1 -0.963,-1.933l0,-2.765c-1.1,-1.082 -1.582,-2.28 -1.447,-3.575l-2.854,-4.098l0,-18.592l-3.51,12.021l-4.107,-11.867l-0.482,29.125l-2.217,-6.764l-1.291,-1.276c-0.02,-0.946 -0.348,-2.01 -0.965,-3.188l0,-12.369l0.52,-18.979l-1.639,-3.924l5.168,0l4.725,13.819l3.895,-13.703l5.438,-0.251zm-26.361,22.845l0,-2.745c-1.1,-0.657 -1.428,-1.469 -1.002,-2.416l6.883,0c-0.598,0.445 -0.752,0.947 -0.482,1.546c0.098,0.676 -0.133,1.218 -0.674,1.643l-0.521,1.972l-4.204,0z"/>
  <path id="svg_20" fill="#fff" clip-rule="evenodd" fill-rule="evenodd" d="m138.178,21.465l1.197,-3.189l-5.439,0.251l-3.895,13.703l-4.725,-13.819l-5.168,0l1.639,3.924l-0.52,18.979l0,12.369c0.617,1.179 0.945,2.242 0.965,3.188l1.291,1.276l2.217,6.764l0.482,-29.125l4.107,11.867l3.51,-12.021l0,18.593l2.854,4.098c-0.135,1.295 0.348,2.493 1.447,3.575l0,2.765c0.135,0.772 0.463,1.411 0.963,1.933l-0.925,-45.131zm-25.164,16.911l0,2.745l4.203,0l0.521,-1.972c0.541,-0.425 0.771,-0.966 0.674,-1.643c-0.27,-0.6 -0.115,-1.102 0.482,-1.546l-6.883,0c-0.425,0.947 -0.097,1.759 1.003,2.416z"/>
  <path id="svg_21" fill="#cc2229" clip-rule="evenodd" fill-rule="evenodd" d="m143.502,19.126l0.172,0.521l0.578,1.663l-1.639,16.042c-0.096,-0.058 -0.211,-0.078 -0.348,-0.097c-0.365,-0.038 -0.848,0.059 -1.426,0.271c-0.791,0.29 -0.945,0.85 -0.443,1.72l1.35,5.024c-1.369,6.514 -1.369,10.225 0,11.114c-0.713,0.579 -0.559,2.203 0.482,4.89c0.502,0.579 0.693,1.469 0.578,2.647c-0.213,0.696 0.115,1.333 0.965,1.934c-0.521,2.164 0.23,3.536 2.275,4.097l3.123,-22.999l2.314,0l0.328,2.938l1.061,9.683l2.217,2.803c0.25,1.198 0.887,2.242 1.891,3.131c0.25,2.338 1.35,4.194 3.316,5.605c0.637,-0.986 0.828,-2.242 0.539,-3.75l-1.986,-22.961l0.906,-4.368l0.348,-1.663l-1.678,0l-1.717,-17.104l-0.27,-2.667l-13.479,0l0.543,1.526zm2.139,2.59l-1.002,-3.15l10.645,0l1.793,19.907l1.484,0l-1.156,4.542l2.18,24.99c-0.965,-1.062 -1.428,-2.532 -1.408,-4.406c-0.945,-0.812 -1.389,-1.623 -1.35,-2.455l-2.604,-2.898l-1.254,-14.071l-5.053,0l-2.699,22.769c-0.328,-1.759 -0.693,-2.919 -1.119,-3.44l-0.096,-3.15c-1.254,-1.895 -1.543,-3.634 -0.906,-5.218c-1.1,-1.064 -1.408,-2.997 -0.926,-5.799c0.637,-1.836 0.887,-3.749 0.771,-5.74l-1.35,-4.87l2.082,0l1.968,-17.011z"/>
  <path id="svg_22" fill="#fff" clip-rule="evenodd" fill-rule="evenodd" d="m144.639,18.566l1.002,3.15l-1.967,17.008l-2.082,0l1.35,4.87c0.115,1.991 -0.135,3.904 -0.771,5.74c-0.482,2.802 -0.174,4.734 0.926,5.799c-0.637,1.584 -0.348,3.323 0.906,5.218l0.096,3.15c0.426,0.521 0.791,1.682 1.119,3.44l2.699,-22.769l5.053,0l1.254,14.071l2.604,2.898c-0.039,0.832 0.404,1.643 1.35,2.455c-0.02,1.874 0.443,3.344 1.408,4.406l-2.18,-24.99l1.156,-4.542l-1.484,0l-1.793,-19.907l-10.646,0l0,0.003zm5.785,3.769l1.871,16.293l-3.801,0l1.93,-16.293z"/>
  <path id="svg_23" fill="#cc2229" clip-rule="evenodd" fill-rule="evenodd" d="m152.295,38.628l-1.871,-16.293l-1.93,16.293l3.801,0zm-1.93,-3.827l0.387,2.513l-0.676,0l0.289,-2.513z"/>
  <path id="svg_24" d="m150.752,37.313l-0.387,-2.512l-0.289,2.512l0.676,0zm-21.637,-17.761l-2.062,0l2.929,8.291l0.926,-3.073l-1.793,-5.218zm41.074,1.469l-0.771,-2.243l-0.906,-0.019l1.677,7.963l0,-5.701z" clip-rule="evenodd" fill-rule="evenodd"/>
  <path id="svg_25" fill="#cc2229" clip-rule="evenodd" fill-rule="evenodd" d="m169.418,18.778l0.771,2.242l0,5.702l-1.678,-7.963l-0.309,-1.488l-10.066,0l2.121,3.266c-0.037,1.373 0.424,2.726 1.408,4.078l-0.617,16.68l-0.598,16.312l1.311,1.547l1.293,1.547c-0.115,1.217 0.27,2.105 1.156,2.705c-0.135,1.488 0.02,2.783 0.482,3.865c0.578,0.792 1.445,1.295 2.604,1.508l0.482,-1.449l0.385,-16.97l1.291,4.039l0.502,1.565c0.715,0.773 1.158,1.759 1.35,2.957c1.061,0.832 1.891,2.571 2.449,5.258c0.443,0.097 0.83,0.387 1.119,0.869l3.027,5.276l0,-48.337c0.482,-0.251 0.732,-0.831 0.732,-1.739l0,-1.74l0.676,-1.16l-0.541,-0.039l-9.873,0l0.523,1.469zm2.121,1.817l-0.965,-2.184l6.615,0l0,1.411c0.037,0.715 -0.174,1.179 -0.637,1.392l0,44.414a8.239,8.239 0 0 0 -1.967,-2.57c-0.443,-3.035 -1.215,-4.716 -2.314,-5.025c0.213,-0.793 -0.076,-1.526 -0.867,-2.165l-4.531,-13.722l-0.387,24.932c-0.598,-0.386 -0.926,-1.121 -0.965,-2.222c0.291,-1.083 -0.115,-2.05 -1.176,-2.88c0.406,-0.832 -0.424,-2.513 -2.486,-5.045l0.906,-33.011c-1.041,-1.411 -1.408,-2.609 -1.1,-3.614l-1.215,-1.933l6.324,0l4.764,21.395l0,-19.173l0.001,0z"/>
  <path id="svg_26" fill="#fff" clip-rule="evenodd" fill-rule="evenodd" d="m170.574,18.411l0.965,2.184l0,19.172l-4.764,-21.395l-6.324,0l1.215,1.933c-0.309,1.005 0.059,2.203 1.1,3.614l-0.906,33.011c2.062,2.532 2.893,4.213 2.486,5.045c1.061,0.83 1.467,1.797 1.176,2.88c0.039,1.101 0.367,1.836 0.965,2.222l0.387,-24.932l4.531,13.722c0.791,0.639 1.08,1.372 0.867,2.165c1.1,0.31 1.871,1.99 2.314,5.025a8.254,8.254 0 0 1 1.967,2.57l0,-44.413c0.463,-0.213 0.674,-0.677 0.637,-1.392l0,-1.411l-6.616,0z"/>
  <path id="svg_27" clip-rule="evenodd" fill-rule="evenodd" d="m180.562,20.73l0,-1.102l0.58,-1.16l-2.508,0.039l0,1.739c0,0.909 -0.25,1.488 -0.732,1.74l0,46.965l2.564,3.729l0,-9.662l-0.387,-21.551l0,-18.649c0.349,-0.464 0.503,-1.16 0.483,-2.088zm-22.271,-0.463l-1.582,0l1.717,17.104l1.158,0l-1.293,-17.104zm2.758,21.028l-1.021,0.077l-0.271,-2.338l-0.906,4.368l1.986,22.961c0.289,1.508 0.098,2.764 -0.539,3.75c-0.135,1.623 0.52,2.841 1.986,3.633c0.365,-1.797 0.443,-3.71 0.27,-5.721l-0.791,-8.871l-1.311,-1.547l0.597,-16.312zm8.406,13.103l-1.291,-4.039l-0.385,16.97l-0.482,1.449c-0.02,2.281 0.732,3.672 2.217,4.194l-0.059,-18.574zm-17.643,-5.507l-0.328,-2.938l-2.314,0l-3.123,22.999c-0.348,1.816 0.191,3.131 1.619,3.924l2.988,-23.985l1.158,0zm-19.167,-4.813l-1.563,5.141l1.891,4.04l-0.328,-9.181zm-3.047,6.03l-2.315,-5.934l0,26.054l-0.135,0l0.868,3.517l0.906,0.059l0.289,-14.265l0.387,-9.431z"/>
  <path id="svg_28" fill="#cc2229" clip-rule="evenodd" fill-rule="evenodd" d="m120.014,73.552l-0.23,-0.792l-10.625,-35.505l5.553,-13.818c-0.135,-0.367 -0.463,-0.638 -0.965,-0.812c0.443,-1.121 -0.23,-2.165 -2.023,-3.151c-0.443,-1.391 -1.158,-2.184 -2.18,-2.358l-12.767,0c-1.253,0.541 -1.716,1.256 -1.408,2.126c-0.154,0.909 0,1.682 0.482,2.358c-0.309,0.696 -0.309,1.333 0,1.933l0.347,13.2c0,0.561 0,1.141 0.019,1.72l0,0.87l0.116,17.376c0.713,0.444 1.196,1.023 1.408,1.72c0.096,1.643 0.887,2.996 2.391,4.02c0.059,3.034 1.234,4.832 3.51,5.393c0.193,0.059 0.385,0.097 0.598,0.116l0,-19.424l2.16,5.624l1.504,3.942c2.062,1.103 3.143,2.552 3.277,4.388c1.408,0.252 2.236,1.411 2.469,3.44l6.364,7.634zm-10.375,-55.238c0.715,0.696 1.139,1.43 1.254,2.223c1.447,0.406 1.947,1.179 1.543,2.339c-0.02,0.561 0.25,0.927 0.828,1.102l-5.648,13.626l9.023,29.86l-1.928,-2.28c-0.096,-1.565 -0.867,-2.86 -2.275,-3.865c0.096,-0.638 -0.154,-1.275 -0.771,-1.914c-1.311,-0.851 -2.373,-1.875 -3.182,-3.054l-5.689,-15.403l0,24.933c-1.061,-0.832 -1.523,-2.088 -1.387,-3.77c-1.293,-0.908 -2.045,-2.126 -2.219,-3.634c-0.174,-0.715 -0.579,-1.449 -1.253,-2.164l-0.385,-20.7l0,-12.698c-0.637,-0.271 -0.637,-0.851 0,-1.74c-1.253,-1.507 -1.389,-2.454 -0.386,-2.86l12.475,0l0,-0.001z"/>
  <path id="svg_29" fill="#fff" clip-rule="evenodd" fill-rule="evenodd" d="m110.893,20.537c-0.115,-0.792 -0.539,-1.526 -1.254,-2.223l-12.476,0c-1.003,0.406 -0.868,1.353 0.386,2.86c-0.637,0.889 -0.637,1.469 0,1.74l0,12.698l0.385,20.7c0.675,0.715 1.08,1.449 1.253,2.164c0.174,1.508 0.926,2.726 2.219,3.634c-0.137,1.682 0.326,2.938 1.387,3.77l0,-24.933l5.689,15.403c0.809,1.179 1.871,2.203 3.182,3.054c0.617,0.639 0.867,1.276 0.771,1.914c1.408,1.005 2.18,2.3 2.275,3.865l1.928,2.28l-9.023,-29.86l5.648,-13.626c-0.578,-0.174 -0.848,-0.541 -0.828,-1.102c0.405,-1.159 -0.095,-1.932 -1.542,-2.338zm-8.1,15.365a375.008,375.008 0 0 1 -0.326,-12.408l5.303,0l-4.977,12.408z"/>
  <path id="svg_30" fill="#cc2229" clip-rule="evenodd" fill-rule="evenodd" d="m102.467,23.494c0.037,4.136 0.152,8.272 0.326,12.408l4.977,-12.408l-5.303,0zm3.181,1.585l-1.641,4.252l-0.25,-4.252l1.891,0z"/>
  <path id="svg_31" d="m104.008,29.331l1.64,-4.252l-1.89,0l0.25,4.252zm15.775,43.429l1.967,2.339l0.809,0l-10.219,-32.509l-1.1,0l0,-3.73c-1.023,-1.102 -1.023,-2.454 0,-4.059l2.834,0l3.568,-8.987l-0.926,-0.889c0.598,-1.333 0,-2.416 -1.812,-3.228l-1.215,-2.223l-1.967,0c1.793,0.986 2.467,2.03 2.023,3.151c0.502,0.173 0.83,0.444 0.965,0.812l-5.553,13.818l10.626,35.505z" clip-rule="evenodd" fill-rule="evenodd"/>
  <path id="svg_32" clip-rule="evenodd" fill-rule="evenodd" d="m119.84,44.271l-0.02,-6.049c-0.172,1.141 -0.52,1.798 -1.061,1.952l-0.48,2.416l-3.955,0l0,1.584l5.516,0.097z"/>
  <path id="svg_33" fill="#cc2229" clip-rule="evenodd" fill-rule="evenodd" d="m75.835,19.803l-1.272,-2.3l-23.892,-0.039l2.468,6.185l0,30.828c1.331,1.854 1.948,3.749 1.89,5.701c0.83,0.599 1.331,1.275 1.542,2.029l0.251,2.415l4.088,6.476l-0.54,-48.028c0.559,0.638 1.138,1.275 1.697,1.913l-0.444,19.578l0,10.051l0.868,0.677l0,5.314c0.636,1.334 0.926,2.648 0.868,3.924l0,5.605c0.675,-0.562 1.35,-1.122 2.005,-1.721a56.615,56.615 0 0 0 4.069,-4.001c0.521,-0.561 1.099,-0.792 1.735,-0.657a36.084,36.084 0 0 0 3.471,-5.895l0.771,-0.58l0.54,-3.285c0.366,-0.291 0.655,-0.31 0.906,-0.059l1.986,-7.595l-0.212,-4.04l0,-0.039l-0.019,-0.328l0,-0.097c-0.02,-0.058 -0.02,-0.097 -0.02,-0.154c-0.02,-0.136 -0.02,-0.252 -0.02,-0.367c-0.038,-0.503 -0.077,-1.005 -0.096,-1.508c-0.019,-0.503 -0.058,-1.005 -0.077,-1.488l-0.058,-0.889l0.771,1.758c-0.655,0.908 -0.655,1.663 0.019,2.281c0.251,0.155 0.56,0.405 0.945,0.773l0.058,0.058l0.617,0.521l-0.424,18.419l-1.118,1.198c-0.83,0.696 -0.83,1.334 0,1.934l1.215,1.062c0.694,0.541 1.35,0.792 1.967,0.754c0.212,-0.02 0.424,-0.077 0.636,-0.174l2.314,-1.256c1.369,0.25 2.681,-0.445 3.953,-2.069c2.218,-0.714 3.722,-1.971 4.531,-3.769l2.507,-2.222l-7.193,0l0,-13.74c2.179,-0.29 3.278,-1.237 3.336,-2.803c1.292,-0.773 2.063,-1.913 2.314,-3.421c0.019,-0.135 0.019,-0.29 0.038,-0.444c0.636,-0.213 1.042,-0.831 1.215,-1.875l-6.557,0l0,-9.084c1.562,0.116 2.68,-0.599 3.317,-2.126c1.157,-0.753 1.735,-2.029 1.716,-3.827c0,-0.174 0,-0.348 -0.019,-0.521l0.675,-1.16l-16.734,0c-1.099,0.077 -1.485,0.599 -1.157,1.546l3.625,4.929l-0.058,10.862c-0.443,-0.077 -0.848,-0.077 -1.214,0.019l0,0.02l-0.097,0a2.874,2.874 0 0 0 -1.273,0.754l-0.039,-0.638l0,-0.078l-0.039,-0.502c-0.019,-0.174 -0.019,-0.328 -0.019,-0.502l-0.636,-11.229l-1.697,-3.074zm-15.889,-1.257l0.637,0l0,2.841l-0.598,0l-0.039,-2.841zm2.7,2.59l-0.964,-2.706l12.052,0l2.603,4.252l1.061,23.657l-1.832,6.204c-0.462,0.173 -0.751,0.521 -0.868,1.082c0.174,1.391 -0.231,2.551 -1.253,3.459l-3.085,5.412l-1.061,-0.097l-4.666,4.89c0.559,-3.188 0.308,-5.586 -0.733,-7.209c0.598,-3.17 0.347,-5.199 -0.733,-6.068l0.579,-29.397c-0.444,-0.599 -0.887,-1.063 -1.312,-1.392c-0.83,-0.618 -0.771,-1.313 0.212,-2.087zm16.719,15.114l2.545,0l0.443,-12.215l-3.567,-5.315l14.751,0l-1.022,3.034c-0.521,0.212 -0.906,0.502 -1.157,0.87c-0.231,0.657 -0.54,1.121 -0.906,1.411c-0.463,-0.213 -1.292,-0.193 -2.507,0.096l0,11.829l5.978,0c-0.578,1.72 -1.446,2.841 -2.603,3.343a4.76,4.76 0 0 1 -0.636,1.624c-2.218,0.251 -3.221,1.102 -2.989,2.513l0.096,14.805l5.129,-0.31c-1.523,2.493 -3.008,3.575 -4.454,3.208c-1.215,2.126 -2.275,2.783 -3.221,1.972l-3.239,1.836c-0.906,-0.348 -1.504,-0.908 -1.774,-1.7l1.678,-2.068l0,-18.844c-1.601,-1.604 -1.986,-2.687 -1.157,-3.248l-1.388,-2.841zm-24.914,-12.891l-1.89,-4.774l6.421,0l0.482,48.067a8.82,8.82 0 0 0 -1.331,-2.358l-0.405,-2.474c-0.135,-0.773 -0.579,-1.353 -1.331,-1.721c0.212,-1.681 -0.424,-3.633 -1.947,-5.816l0,-30.924l0.001,0z"/>
  <path id="svg_34" fill="#fff" clip-rule="evenodd" fill-rule="evenodd" d="m61.682,18.431l0.964,2.706c-0.983,0.773 -1.042,1.469 -0.212,2.087c0.424,0.329 0.868,0.792 1.312,1.392l-0.579,29.397c1.08,0.869 1.331,2.898 0.733,6.068c1.041,1.623 1.292,4.021 0.733,7.209l4.666,-4.89l1.061,0.097l3.085,-5.412c1.022,-0.908 1.427,-2.068 1.253,-3.459c0.116,-0.561 0.405,-0.909 0.868,-1.082l1.832,-6.204l-1.061,-23.657l-2.603,-4.252l-12.052,0zm6.016,6.165l3.375,0c-0.212,2.455 0.077,4.136 0.868,5.083l0.54,17.163l-4.783,9.219l0,-31.465z"/>
  <path id="svg_35" fill="#cc2229" clip-rule="evenodd" fill-rule="evenodd" d="m71.073,24.596l-3.375,0l0,31.465l4.783,-9.219l-0.54,-17.163c-0.791,-0.947 -1.08,-2.628 -0.868,-5.083zm-1.736,1.469c0.115,1.295 0.521,2.59 1.215,3.885c0.058,0.097 0.116,0.212 0.173,0.309l0.347,16.428l-0.617,1.044l-1.118,1.856l0,-23.522z"/>
  <path id="svg_36" clip-rule="evenodd" fill-rule="evenodd" d="m70.552,29.95c-0.694,-1.295 -1.1,-2.59 -1.215,-3.885l0,23.522l1.118,-1.856l0.097,-17.781z"/>
  <path id="svg_37" fill="#fff" clip-rule="evenodd" fill-rule="evenodd" d="m81.91,36.25l-2.545,0l1.388,2.841c-0.829,0.561 -0.444,1.643 1.157,3.248l0,18.844l-1.678,2.068c0.271,0.792 0.868,1.353 1.774,1.7l3.239,-1.836c0.945,0.812 2.006,0.154 3.221,-1.972c1.446,0.368 2.931,-0.715 4.454,-3.208l-5.129,0.31l-0.096,-14.805c-0.231,-1.411 0.771,-2.262 2.989,-2.513c0.328,-0.541 0.54,-1.083 0.636,-1.624c1.157,-0.502 2.025,-1.624 2.603,-3.343l-5.978,0l0,-11.828c1.214,-0.29 2.043,-0.309 2.507,-0.096c0.366,-0.29 0.675,-0.754 0.906,-1.411c0.25,-0.368 0.636,-0.658 1.157,-0.87l1.022,-3.034l-14.751,0l3.567,5.315l-0.443,12.214zm-29.349,-17.665l1.89,4.774l0,30.924c1.523,2.184 2.16,4.136 1.947,5.816c0.752,0.368 1.196,0.947 1.331,1.721l0.405,2.474a8.89,8.89 0 0 1 1.331,2.358l-0.482,-48.067l-6.422,0z"/>
  <path id="svg_38" clip-rule="evenodd" fill-rule="evenodd" d="m62.067,24.982c-0.559,-0.638 -1.138,-1.275 -1.697,-1.913l0.54,48.028l1.581,2.706l0,-18.515l-0.868,-0.677l0,-10.05l0.444,-19.579zm17.471,10.089c0.019,-0.019 0.058,-0.019 0.097,-0.019l-0.598,-10.244l-3.201,-5.006l1.697,3.073l0.636,11.229c0,0.174 0,0.329 0.019,0.502l0.039,0.503l1.311,-0.038z"/>
  <path id="svg_39" clip-rule="evenodd" fill-rule="evenodd" d="m79.635,35.052c-0.039,0 -0.078,0 -0.097,0.019l0.097,0l0,-0.019zm-1.408,0.058l0,0.078l0.038,0.637l-0.038,-0.715zm0,0l-0.039,-0.503l0.039,0.503z"/>
  <path id="svg_40" clip-rule="evenodd" fill-rule="evenodd" d="m78.227,35.11l0.039,0.715a2.874,2.874 0 0 1 1.273,-0.754l-1.312,0.039zm0.906,6.359c-0.289,-0.193 -0.462,-0.252 -0.559,-0.154c0,0.115 0,0.231 0.02,0.367c0,0.058 0,0.097 0.02,0.154l0,0.097l0.019,0.367l0.212,4.04l-1.986,7.595c-0.251,-0.251 -0.54,-0.232 -0.906,0.059l-0.54,3.285l-0.771,0.58a36.156,36.156 0 0 1 -3.471,5.895c-0.636,-0.135 -1.215,0.097 -1.735,0.657a56.615,56.615 0 0 1 -4.069,4.001l0,4.077a44.679,44.679 0 0 0 5.958,-6.146l1.581,0l3.085,-5.798c0.309,-0.405 0.617,-0.657 0.926,-0.716l0.675,-3.343c0.289,-0.329 0.578,-0.464 0.868,-0.426l1.967,-6.958l-0.29,-6.803l-0.058,-0.058l-0.521,-0.444a1.908,1.908 0 0 1 -0.425,-0.328z"/>
  <path id="svg_41" clip-rule="evenodd" fill-rule="evenodd" d="m78.574,41.314c0.097,-0.098 0.27,-0.039 0.559,0.154c-0.674,-0.618 -0.674,-1.373 -0.019,-2.281l-0.771,-1.758l0.058,0.889c0.019,0.483 0.058,0.985 0.077,1.488c0.019,0.503 0.058,1.006 0.096,1.508zm16.796,-22.072l-0.849,0.135c0.02,1.797 -0.559,3.073 -1.716,3.827c-0.637,1.527 -1.755,2.242 -3.317,2.126l0,9.084l1.89,0l0,-8.214l1.678,0c0.945,-0.058 1.427,-0.561 1.446,-1.508l1.35,-1.159c-0.309,-0.6 -0.309,-1.237 0,-1.933c-0.482,-0.676 -0.637,-1.449 -0.482,-2.358zm-0.578,17.491c-0.251,1.508 -1.022,2.648 -2.314,3.421c-0.058,1.565 -1.157,2.513 -3.336,2.803l0,13.742l2.141,0l0,-12.66c2.179,-0.019 3.297,-0.851 3.374,-2.474c0.521,-0.193 1.022,-0.657 1.543,-1.392l0.019,-0.851l0,-0.87c-0.019,-0.58 -0.019,-1.16 -0.019,-1.72l-1.408,0l0,0.001zm11.608,17.414l-2.16,-5.624l0,19.424a3.03,3.03 0 0 1 -0.598,-0.116c0.02,2.029 1.002,3.267 2.969,3.73l-0.211,-17.414zm-8.62,5.451l0,-0.677l-3.954,0c-0.81,1.798 -2.313,3.055 -4.531,3.769c-1.272,1.624 -2.584,2.319 -3.953,2.069l-2.314,1.256a1.964,1.964 0 0 1 -0.636,0.174l2.179,1.816c1.369,-1.024 3.047,-1.662 5.014,-1.932c0.907,-1.644 2.333,-2.533 4.242,-2.668c0.887,-1.681 2.198,-2.937 3.953,-3.807z"/>
  <path id="svg_42" fill="#cc2229" clip-rule="evenodd" fill-rule="evenodd" d="m79.557,41.798l0.521,0.444c-0.386,-0.368 -0.694,-0.618 -0.945,-0.773c0.116,0.116 0.251,0.231 0.424,0.329zm-62.555,-0.426l2.449,0l5.188,5.199l-2.372,4.755c-0.83,1.874 -0.984,3.459 -0.463,4.754l-11.3,25.725l4.878,-4.097l3.298,-2.783c-0.097,-1.643 1.06,-2.9 3.509,-3.77c0.444,-1.99 1.465,-3.111 3.066,-3.363l9.005,-20.988c0.424,-0.871 0.193,-1.508 -0.694,-1.914c-0.54,-0.136 -0.964,-0.986 -1.253,-2.551a15.317,15.317 0 0 1 -0.193,-1.198l-6.055,-6.32l-1.427,-1.488l3.278,-4.658l1.118,2.223l2.546,5.044l0.192,-2.261l0,-0.019l0.521,-5.875l0.058,-0.773l3.201,0l0,21.202c0.058,0.115 0.096,0.232 0.154,0.367l-0.154,0.367l0,22.517l2.237,-4.349l0.752,-1.469l1.061,-3.209c0.52,-1.023 1.118,-1.546 1.832,-1.604l0,-3.537c-0.173,-0.639 0.309,-1.102 1.466,-1.372l0,-10.649l3.509,-3.904c0.521,0.367 1.119,0.367 1.832,0l4.879,-5.663l-0.154,-1.236l-1.369,-10.939l-0.309,-2.436c-1.061,-0.985 -1.774,-2.049 -2.141,-3.189l-16.004,0c1.408,1.276 1.408,2.745 0,4.407c0.443,2.551 0.231,3.595 -0.656,3.15l0.656,-7.557l0.058,-0.792l-8.947,0l-11.841,16.831l1.08,3.054l3.509,2.918l0,1.45zm2.816,-1.14l-1.37,0c0.463,-0.792 -0.752,-2.068 -3.664,-3.827l-0.829,-2.378l11.146,-15.384l6.788,0l-1.215,13.181l-2.526,-6.126l-5.341,8.04l7.636,7.654l0.906,3.672l1.62,1.604l-8.947,20.12c-1.793,0.561 -2.757,1.643 -2.893,3.227c-2.719,1.257 -3.915,2.61 -3.587,4.06l-3.741,2.821l9.545,-20.815c-0.521,-0.928 -0.559,-2.029 -0.154,-3.285c1.639,-2.919 2.642,-5.044 3.046,-6.379l-6.42,-6.185zm28.578,-21.28c0.173,1.411 0.733,2.358 1.677,2.841l1.524,13.529l-4.436,4.832c-0.617,-0.328 -1.118,-0.328 -1.523,0l-4.127,4.213l0,10.805c-1.253,0.367 -1.851,2.087 -1.832,5.199c-1.253,1.121 -2.256,2.938 -2.97,5.431l0,-39.718l-2.294,-0.097c0.444,-1.218 0.444,-2.338 0,-3.362c1.042,-1.218 1.388,-2.455 1.061,-3.673c4.223,0.387 8.523,0.387 12.92,0z"/>
  <path id="svg_43" fill="#fff" clip-rule="evenodd" fill-rule="evenodd" d="m18.448,40.232l1.37,0l6.421,6.184c-0.405,1.335 -1.407,3.46 -3.046,6.379c-0.405,1.256 -0.367,2.357 0.154,3.285l-9.545,20.815l3.741,-2.821c-0.328,-1.449 0.868,-2.803 3.586,-4.06c0.135,-1.584 1.099,-2.666 2.893,-3.227l8.947,-20.12l-1.62,-1.604l-0.906,-3.672l-7.636,-7.654l5.341,-8.04l2.526,6.126l1.215,-13.181l-6.788,0l-11.145,15.385l0.829,2.378c2.912,1.759 4.127,3.034 3.663,3.827zm31.625,-18.439c-0.944,-0.483 -1.504,-1.43 -1.677,-2.841a72.027,72.027 0 0 1 -12.92,0c0.328,1.218 -0.019,2.455 -1.061,3.673c0.444,1.024 0.444,2.145 0,3.362l2.294,0.097l0,39.718c0.714,-2.493 1.717,-4.31 2.97,-5.431c-0.02,-3.112 0.578,-4.832 1.832,-5.199l0,-10.805l4.127,-4.213c0.405,-0.328 0.906,-0.328 1.523,0l4.436,-4.832l-1.524,-13.529zm-8.407,4.194l4.358,0l0,6.591l-4.358,4.213l0,-10.804z"/>
  <path id="svg_44" fill="#cc2229" clip-rule="evenodd" fill-rule="evenodd" d="m46.024,25.987l-4.358,0l0,10.804l4.358,-4.213l0,-6.591zm-3.066,1.315l1.909,0l0,4.812l-0.945,0.773l-0.964,0.754l0,-6.339z"/>
  <path id="svg_45" d="m44.867,27.302l-1.909,0l0,6.339l0.964,-0.754l-0.019,-3.073l0.964,-0.116l0,-2.396zm-15.832,3.594l-1.118,-2.222l-3.278,4.658l1.426,1.488l2.97,-3.924zm2.738,2.784l1.35,2.281l1.06,-8.175c-0.54,-0.387 -1.176,-0.387 -1.89,0l-0.521,5.875l0,0.019l0.001,0zm21.154,-9.277l-1.33,-0.87l1.369,10.94l-0.039,-10.07zm0.02,15.655l0.173,-4.349l-4.879,5.663c-0.713,0.367 -1.311,0.367 -1.832,0l-3.509,3.904l0,10.649c-0.964,0.271 -1.446,0.733 -1.466,1.372l0,3.537c-0.713,0.058 -1.312,0.58 -1.832,1.604l-1.061,3.209l-0.752,1.469l0,5.199l2.584,-5.74c0.193,-1.334 0.752,-2.223 1.678,-2.687c0.058,-3.518 0.656,-5.218 1.832,-5.122l0,-10.881l4.049,-3.982c0.984,0.175 2.063,-0.463 3.201,-1.913l1.814,-1.932zm-19.38,4.832c-0.174,-1.643 -0.579,-2.493 -1.253,-2.551c0.289,1.564 0.713,2.415 1.253,2.551zm1.986,4.058l0,-0.734c-0.328,-0.676 -0.752,-1.141 -1.292,-1.41l-9.005,20.988c-1.601,0.252 -2.622,1.373 -3.066,3.363c-2.449,0.869 -3.606,2.127 -3.509,3.77l-3.298,2.783l-1.812,3.942l6.248,-5.045c0.231,-1.836 1.601,-3.247 4.126,-4.213c0.019,-1.507 0.925,-2.571 2.757,-3.208l8.851,-20.236zm0,-0.734l0,0.734l0.154,-0.367c-0.058,-0.135 -0.096,-0.252 -0.154,-0.367z" clip-rule="evenodd" fill-rule="evenodd"/>
  <path id="svg_46" stroke-miterlimit="2.613" stroke-linejoin="round" stroke-linecap="round" stroke-width="0.386" stroke="#000" fill="none" d="m78.227,35.11l0,0.077m74.955,-25.086l0,-1.005l-2.219,0l0,-1.218l2.025,0l0.385,-2.165l-5.494,0l0.385,4.388m0,0l0.115,1.527m-11.897,-1.527l0.076,1.546m5.516,-0.001l-1.004,-1.546m0,0.001l3.182,-3.866l-3.219,-0.812l-1.504,2.126l0,-1.894l-3.279,0l0.232,4.445m3.317,58.427c0.25,-0.252 0.482,-0.735 0.693,-1.45l0,-6.764l-1.061,-38.655l0.715,-2.339m0,0l0.694,-2.319l-7.713,0.387l-2.219,7.383m5.651,-13.124l0.174,3.382l2.314,0l0.385,-2.609l1.697,2.609l3.123,0l-2.178,-3.382m-2.699,6.63l-5.439,0.251l-3.895,13.703l-4.725,-13.819l-5.168,0l1.639,3.924l-0.52,18.979l0,12.369c0.617,1.179 0.945,2.242 0.965,3.188l1.291,1.276l2.217,6.764l0.482,-29.125l4.107,11.867l3.51,-12.021l0,18.593l2.854,4.098c-0.135,1.295 0.348,2.493 1.447,3.575l0,2.765c0.135,0.772 0.463,1.411 0.963,1.933l-0.926,-45.13l1.198,-3.19m4.299,1.372l-0.172,-0.521m-1.236,18.128c0.137,0.02 0.252,0.039 0.348,0.097l1.639,-16.042l-0.578,-1.663m0.964,-1.081l10.645,0l1.793,19.907l1.484,0l-1.156,4.542l2.18,24.99c-0.965,-1.062 -1.428,-2.532 -1.408,-4.406c-0.945,-0.812 -1.389,-1.623 -1.35,-2.455l-2.604,-2.898l-1.254,-14.071l-5.053,0l-2.699,22.769c-0.328,-1.759 -0.693,-2.919 -1.119,-3.44l-0.096,-3.15c-1.254,-1.895 -1.543,-3.634 -0.906,-5.218c-1.1,-1.064 -1.408,-2.997 -0.926,-5.799c0.637,-1.836 0.887,-3.749 0.771,-5.74l-1.35,-4.87l2.082,0l1.967,-17.008l-1.001,-3.153m12.07,1.701l-0.27,-2.667l-13.479,0l0.541,1.527m4.878,-7.5l0,3.169l4.609,0l0.385,-2.087l-2.467,0l0,-1.082m-7.404,7.499l-3.355,0.193m0.923,-9.218l7.193,0m0.116,1.526l-6.305,0.019m-10.877,-1.545l0.521,-4.388l-7.23,0l0.326,4.388m2.758,-2.455l-0.039,2.455l1.582,-0.483l-0.385,-1.971l-1.158,0l0,-0.001m2.971,4l-0.309,-0.715l0.963,-0.831m-6.265,1.546l-5.246,0.02m0,0l-0.328,-1.565m-0.001,0l5.457,0m0,0l0.117,1.546m0.001,-0.001l0.23,3.382l2.564,0l0,-3.382l1.447,3.576l2.834,0l-1.465,-3.576m0.366,13.124l-1.793,-5.218l-2.062,0m-13.672,-7.886l-1.195,3.711l2.41,-0.097l1.117,-2.706l1.35,0l0.869,2.513l2.506,0l-0.752,-3.421m7.367,7.886l-0.771,-2.146l-8.35,0l2.371,4.349l-0.443,13.046l-5.785,0m5.843,2.473c-0.02,0.348 -0.039,0.657 -0.098,0.947m11.088,-13.451l-0.926,3.073l-2.93,-8.291m15.214,17.703l0,-13.761l1.408,-3.846m-1.445,40.626c-1.041,-2.687 -1.195,-4.311 -0.482,-4.89c-1.369,-0.89 -1.369,-4.601 0,-11.114l-1.35,-5.024c-0.502,-0.87 -0.348,-1.43 0.443,-1.72c0.578,-0.212 1.061,-0.309 1.426,-0.271m-5.707,-25.609l-6.016,0m0.654,-1.545l5.285,0m32.936,8.677l0.771,2.242l0,5.702l-1.678,-7.963m3.028,1.836l0,19.172l-4.764,-21.395l-6.324,0l1.215,1.933c-0.309,1.005 0.059,2.203 1.1,3.614l-0.906,33.011c2.062,2.532 2.893,4.213 2.486,5.045c1.061,0.83 1.467,1.797 1.176,2.88c0.039,1.101 0.367,1.836 0.965,2.222l0.387,-24.932l4.531,13.722c0.791,0.639 1.08,1.372 0.867,2.165c1.1,0.31 1.871,1.99 2.314,5.025a8.254,8.254 0 0 1 1.967,2.57l0,-44.413c0.463,-0.213 0.674,-0.677 0.637,-1.392l0,-1.411l-6.615,0l0.964,2.184m-3.027,-1.836l-0.309,-1.488l-10.066,0l2.121,3.266c-0.037,1.373 0.424,2.726 1.408,4.078l-0.617,16.68m8.369,-22.517l-0.906,-0.02m10.123,-0.25l0.676,-1.16l-0.541,-0.039l-9.873,0l0.521,1.469m8.484,50.174l2.564,3.729l0,-9.662l-0.387,-21.551l0,-18.65c0.348,-0.464 0.502,-1.16 0.482,-2.087l0,-1.102l0.58,-1.16l-2.508,0.039m-0.731,50.444l0,-46.965c0.482,-0.251 0.732,-0.831 0.732,-1.74l0,-1.739m-17.7,-8.407l1.6,-0.677l-0.385,-2.067l-1.158,0l-0.057,2.744m-2.719,0l0.076,1.527m6.363,-1.527l0.098,-4.388l-6.809,0l0.271,4.388m5.747,1.526l-0.328,-0.851l1.021,-0.676m-13.748,1.527l0,-0.657l2.275,0l0,-0.87m5.11,1.527l0.193,3.363l2.023,0l0.482,-3.363l1.447,3.363l2.834,0l-1.311,-3.363m-5.668,0l-7.385,0m8.678,25.744l-1.293,-17.104l-1.582,0m1.506,-10.166l-5.033,0m6.402,27.27l-1.158,0l-1.717,-17.104m-5.957,17.046l-0.676,0l0.289,-2.513l0.387,2.513m10.297,3.982l-1.021,0.077l-0.271,-2.338m-0.001,0l0.348,-1.663l-0.52,0m-9.16,-15.036l-1.93,16.293l3.801,0l-1.871,-16.293m16.873,46.443l0.482,-1.449l0.385,-16.97l1.291,4.039m0,0l0.502,1.565c0.715,0.773 1.158,1.759 1.35,2.957c1.061,0.832 1.891,2.571 2.449,5.258c0.443,0.097 0.83,0.387 1.119,0.869l3.027,5.276l0,-1.372m-26.09,-20.06l-0.328,-2.938l-2.314,0l-3.123,22.999m15.002,-27.657l-0.598,16.312l1.311,1.547m-15.715,9.798c-0.348,1.816 0.191,3.131 1.619,3.924l2.988,-23.985l1.158,0m0,0l1.061,9.683l2.217,2.803c0.25,1.198 0.887,2.242 1.891,3.131c0.25,2.338 1.35,4.194 3.316,5.605m-0.541,-31.079l-0.906,4.368l1.986,22.961c0.289,1.508 0.098,2.764 -0.539,3.75m1.465,-10.96l1.293,1.547c-0.115,1.217 0.27,2.105 1.156,2.705c-0.135,1.488 0.02,2.783 0.482,3.865c0.578,0.792 1.445,1.295 2.604,1.508m-7,1.334c-0.135,1.623 0.52,2.841 1.986,3.633c0.365,-1.797 0.443,-3.71 0.27,-5.721l-0.791,-8.871m5.535,9.625c-0.02,2.281 0.732,3.672 2.217,4.194l-0.059,-18.574m-36.482,-1.139l-0.328,-9.181l-1.562,5.141m-1.485,0.889l-2.314,-5.935l0,26.054l-0.135,0m-7.309,-25.956l0,9.723c0.02,0.754 0.309,1.236 0.85,1.487c0.018,1.604 0.598,2.783 1.734,3.537l3.799,11.21l0.926,0m5.824,-16.969l0.057,1.584c0.752,1.373 1.484,2.532 2.219,3.44c0.02,1.256 0.404,2.3 1.195,3.132l0.539,1.062l0,3.383l2.256,2.898c0.193,0.039 0.387,-0.039 0.561,-0.231m-8.718,-19.308l1.891,4.04m-3.375,-3.151l0.676,1.739l0.809,-2.629m-3.935,21.01l0.867,3.518l0.906,0.059l0.289,-14.265l0.387,-9.431m-23.197,4.038l1.504,3.942c2.062,1.103 3.143,2.552 3.277,4.388c1.408,0.252 2.236,1.411 2.469,3.44l6.363,7.634l-0.23,-0.792m0,0.001l1.967,2.339l0.809,0l-10.219,-32.509m29.889,17.684c0.502,0.579 0.693,1.469 0.578,2.647c-0.213,0.696 0.115,1.333 0.965,1.934c-0.521,2.164 0.23,3.536 2.275,4.097m-6.248,-0.425l0,2.474l1.908,2.744c0.348,-0.772 0.521,-1.623 0.521,-2.551l0,-10.92m-22.388,-16.003l-0.02,-6.049m-36.271,-26.459l-0.078,-1.662m2.546,0.096l1.64,-0.425l-0.482,-2.126l-0.965,0l-0.193,2.551m3.722,-0.096l0.367,-4.388l-6.884,0l0.25,4.388m-4.879,0l0,-0.773l-2.314,0l0,-1.392l2.063,0l0.54,-2.126l-5.842,0l0.154,4.291m0,0l0.077,1.778m2.912,-0.039l0,-0.387l2.411,0l0,-1.353m-5.323,1.778l0.116,3.44l4.86,-0.522l0.385,-2.087l-2.449,0l0,-0.87m-0.348,7.964l-1.272,-2.3l-23.892,-0.039l2.468,6.185l0,30.828c1.331,1.854 1.948,3.749 1.89,5.701c0.83,0.599 1.331,1.275 1.542,2.029l0.251,2.415l4.088,6.476m33.611,-51.721c0,-0.174 0,-0.348 -0.019,-0.521l0.675,-1.16l-16.738,0c-1.099,0.077 -1.485,0.599 -1.157,1.546l3.625,4.929l-0.058,10.862c-0.443,-0.077 -0.849,-0.077 -1.214,0.02m3.914,-23.29l0.192,3.421l2.218,0l0.443,-3.382l1.292,3.382l2.893,0l-1.542,-3.499m-5.573,-1.584l-4.878,0m-2.411,1.739l7.367,-0.077m-16.758,-1.662l-0.115,1.855m0.115,-1.855l0.097,-2.029l2.025,0l0.385,-2.262l-7.867,0l-0.424,2.126l2.603,0l0,2.165m-5.998,-2.726l-0.135,0.561l-2.218,0l0,1.682l2.218,0l0,1.895l-2.353,0l0,1.353l1.716,0m0.772,-5.491l0.309,-1.469l-5.554,-0.058m11.242,4.253l-5.592,0l0,-1.102l-1.022,-0.097l-0.038,-0.483l1.002,0.039l-0.347,-1.083m5.997,4.62l0,-1.894m-6.769,2.763l0.887,-0.87l5.881,0m-3.026,6.552l0,2.841l-0.598,0l-0.039,-2.841l0.637,0m1.099,-0.115l12.052,0l2.603,4.252l1.061,23.657l-1.832,6.204c-0.462,0.173 -0.751,0.521 -0.868,1.082c0.174,1.391 -0.231,2.551 -1.253,3.459l-3.085,5.412l-1.061,-0.097l-4.666,4.89c0.559,-3.188 0.308,-5.586 -0.733,-7.209c0.598,-3.17 0.347,-5.199 -0.733,-6.068l0.579,-29.397c-0.444,-0.599 -0.887,-1.063 -1.312,-1.392c-0.829,-0.619 -0.771,-1.314 0.212,-2.087l-0.964,-2.706m-6.402,-3.46l2.545,-0.231l0,-1.875l-0.984,0m6.769,-0.87l0,3.228l2.893,0l0.174,-3.267m-4.185,48.647l0,-5.314l-0.868,-0.677l0,-10.051l0.444,-19.578c-0.559,-0.638 -1.138,-1.275 -1.697,-1.913l0.54,48.028m9.641,-41.148c-0.694,-1.295 -1.1,-2.59 -1.215,-3.885l0,23.522l1.118,-1.856m0.001,-0.001l0.617,-1.044l-0.347,-16.428c-0.058,-0.097 -0.116,-0.212 -0.173,-0.309m0.52,-5.353c-0.212,2.455 0.077,4.136 0.868,5.083l0.54,17.163l-4.783,9.219l0,-31.465l3.375,0m8.562,10.456c-0.039,0 -0.078,0 -0.097,0.019m0,0l0.097,0l0,-0.019m85.019,-24.951l21.598,0l0,1.508l-22.291,0.019m-85.773,22.979l0.039,0.503m0,0l-0.039,-0.503m0.039,0.503l0.039,0.715m-0.001,0a2.874,2.874 0 0 1 1.273,-0.754m0,0l-1.312,0.039m-2.391,-15.307l1.697,3.073l0.636,11.229c0,0.174 0,0.329 0.019,0.502m0.387,6.707c0.097,-0.098 0.27,-0.039 0.559,0.154m0,0.001c-0.674,-0.618 -0.674,-1.373 -0.019,-2.281l-0.771,-1.758l0.058,0.889c0.019,0.483 0.058,0.985 0.077,1.488c0.019,0.502 0.058,1.005 0.096,1.508m0.791,-5.065l1.388,2.841c-0.829,0.561 -0.444,1.643 1.157,3.248l0,18.844l-1.678,2.068c0.271,0.792 0.868,1.353 1.774,1.7l3.239,-1.836c0.945,0.812 2.006,0.154 3.221,-1.972c1.446,0.368 2.931,-0.715 4.454,-3.208l-5.129,0.31l-0.096,-14.805c-0.231,-1.411 0.771,-2.262 2.989,-2.513c0.328,-0.541 0.54,-1.083 0.636,-1.624c1.157,-0.502 2.025,-1.624 2.603,-3.343l-5.978,0l0,-11.828c1.214,-0.29 2.043,-0.309 2.507,-0.096c0.366,-0.29 0.675,-0.754 0.906,-1.411c0.25,-0.368 0.636,-0.658 1.157,-0.87l1.022,-3.034l-14.751,0l3.567,5.315l-0.443,12.214l-2.545,0m0.27,-1.198l-0.598,-10.244l-3.201,-5.006m-2.642,-9.701l-6.402,0m-0.116,1.855l6.595,-0.077m46.086,-1.778l-0.945,-4.291l-3.143,0l-1.389,4.291m0.001,0l-0.5,1.565m2.892,-1.565l0.365,-0.87l0.232,0.87m0.001,0l0.191,0.831l-1.156,0l0.367,-0.831m0,0l0.598,0m-11.725,1.584l3.529,-1.584m-3.798,0l1.484,-0.58l-0.385,-1.836l-0.908,0l-0.191,2.416m3.799,0l0,-4.484l-6.809,0l0.252,4.484m7.52,8.213l-12.476,0c-1.003,0.406 -0.868,1.353 0.386,2.86c-0.637,0.889 -0.637,1.469 0,1.74l0,12.698l0.385,20.7c0.675,0.715 1.08,1.449 1.253,2.164c0.174,1.508 0.926,2.726 2.219,3.634c-0.137,1.682 0.326,2.938 1.387,3.77l0,-24.933l5.689,15.403c0.809,1.179 1.871,2.203 3.182,3.054c0.617,0.639 0.867,1.276 0.771,1.914c1.408,1.005 2.18,2.3 2.275,3.865l1.928,2.28l-9.023,-29.86l5.648,-13.626c-0.578,-0.174 -0.848,-0.541 -0.828,-1.102c0.404,-1.16 -0.096,-1.933 -1.543,-2.339c-0.115,-0.791 -0.538,-1.525 -1.253,-2.222m4.435,16.487l3.568,-8.987l-0.926,-0.889c0.598,-1.333 0,-2.416 -1.812,-3.228l-1.215,-2.223l-1.967,0m2.159,-9.373l-5.205,0m-6.461,1.584l0.193,3.634l2.314,0l0.424,-3.634m6.577,7.789c-0.443,-1.391 -1.158,-2.184 -2.18,-2.358l-12.766,0c-1.253,0.541 -1.716,1.256 -1.408,2.126m9.777,-7.557l8.234,-0.019m-11.261,-1.565l0.096,1.584m-13.17,0l-0.29,-0.657l0.964,-0.831l0.02,-0.097m5.631,9.142l-0.849,0.135m0.849,-0.135c-0.154,0.909 0,1.682 0.482,2.358c-0.309,0.696 -0.309,1.333 0,1.933m-6.807,-11.848l13.17,0m-0.096,-1.584l-12.38,0m6.113,13.432l-1.35,1.159c-0.02,0.947 -0.501,1.45 -1.446,1.508l-1.678,0l0,8.214m3.143,-15.037c0.02,1.797 -0.559,3.073 -1.716,3.827c-0.637,1.527 -1.755,2.242 -3.317,2.126l0,9.084l1.89,0m3.414,2.319c-0.251,1.508 -1.022,2.648 -2.314,3.421c-0.058,1.565 -1.157,2.513 -3.336,2.803l0,13.742l2.141,0m0.095,-22.285l4.667,0c-0.173,1.044 -0.579,1.662 -1.215,1.875c-0.02,0.154 -0.02,0.31 -0.038,0.444m1.426,2.59l0,-0.87c-0.019,-0.58 -0.019,-1.16 -0.019,-1.72m-4.917,19.966l0,-12.66c2.179,-0.019 3.297,-0.851 3.374,-2.474c0.521,-0.193 1.022,-0.657 1.543,-1.392l0.019,-0.851m-0.019,-2.589l-1.407,0m1.06,-13.2l0.347,13.2m6.594,-0.831l4.977,-12.408l-5.303,0c0.037,4.136 0.152,8.273 0.326,12.408m16.99,36.858l-10.625,-35.505l5.553,-13.818c-0.135,-0.367 -0.463,-0.638 -0.965,-0.812c0.443,-1.121 -0.23,-2.165 -2.023,-3.151m-6.075,5.605l-1.891,0l0.25,4.252l1.641,-4.252m7.366,13.297c-1.1,-0.657 -1.428,-1.469 -1.002,-2.416l6.883,0c-0.598,0.445 -0.752,0.947 -0.482,1.546c0.098,0.676 -0.133,1.218 -0.674,1.643l-0.521,1.972l-4.203,0l0,-2.745l-0.001,0m1.06,-3.575l-2.834,0c-1.023,1.604 -1.023,2.957 0,4.059l0,3.73l1.1,0m-96.958,35.118l-4.878,4.097l11.3,-25.725c-0.521,-1.295 -0.367,-2.88 0.463,-4.754l2.372,-4.755l-5.188,-5.199l-2.449,0l0,-1.449l-3.509,-2.918l-1.08,-3.054l11.84,-16.834l8.947,0l-0.058,0.792m-1.253,0.734l-1.215,13.181l-2.526,-6.126l-5.341,8.04l7.636,7.654l0.906,3.672l1.62,1.604l-8.947,20.12c-1.793,0.561 -2.757,1.643 -2.893,3.227c-2.719,1.257 -3.915,2.61 -3.587,4.06l-3.741,2.821l9.545,-20.815c-0.521,-0.928 -0.559,-2.029 -0.154,-3.285c1.639,-2.919 2.642,-5.044 3.046,-6.379l-6.421,-6.184l-1.37,0c0.463,-0.792 -0.752,-2.068 -3.664,-3.827l-0.829,-2.378l11.146,-15.384m27.268,-12.795l-1.542,0.831c-0.752,-0.425 -1.735,-0.677 -2.989,-0.773m-7.001,0.695l0.443,8.485l2.121,0l0.386,-3.479l3.625,-0.735l0.424,-4.967m-2.833,1.875l0,1.933l-1.215,0.444l0,-2.474l1.215,0.097m10.278,7.19l-2.526,0.213l-0.386,-9.335m-11.532,0.753l-3.548,-1.179l-2.699,1.836l2.063,1.005l1.254,-0.58l1.118,0.387l0,0.676l-4.532,0l-0.733,1.894l2.7,0.483l0,-0.773l1.601,0l0,0.87l-3.761,0.425l0,2.088l2.893,0l0,-0.734l1.582,0l0,0.676l-3.125,0.928l2.063,2.068l2.507,-0.58l-0.617,-0.773l1.157,-0.097c3.934,1.314 7.328,1.295 10.163,-0.039l1.022,0l-0.675,0.773l2.604,0.618l1.408,-1.604m-22.138,2.939l16.005,0c0.367,1.14 1.08,2.204 2.141,3.189l0.309,2.436m-1.525,-1.741l1.524,13.529l-4.436,4.832c-0.617,-0.328 -1.118,-0.328 -1.523,0l-4.127,4.213l0,10.805c-1.253,0.367 -1.851,2.087 -1.832,5.199c-1.253,1.121 -2.256,2.938 -2.97,5.431l0,-39.718l-2.294,-0.097c0.444,-1.218 0.444,-2.338 0,-3.362c1.042,-1.218 1.388,-2.455 1.061,-3.673c4.223,0.387 8.523,0.387 12.92,0c0.173,1.411 0.732,2.359 1.677,2.841m-2.237,-15.887l-7.038,0l0.038,0.696m-7.693,11.307l-0.656,7.557c0.887,0.444 1.099,-0.599 0.656,-3.15c1.407,-1.663 1.407,-3.131 0,-4.407m-4.108,12.987l-1.119,-2.223l-3.278,4.658l1.427,1.488m9.488,13.395l0,-21.202l-3.201,0l-0.058,0.773m0,0c0.713,-0.387 1.35,-0.387 1.89,0l-1.06,8.175l-1.351,-2.281m-5.708,1.141l6.055,6.32c0.058,0.444 0.115,0.831 0.193,1.198m-0.54,-8.658l-0.193,2.261l-2.545,-5.044m3.259,-3.112l-0.521,5.875l0,0.019m-2.738,-2.783l-2.97,3.924m26.901,-0.347l-0.039,-10.07l-1.331,-0.87m-7.674,9.354l-0.964,0.754l0,-6.339l1.909,0l0,2.396m0,0l-0.964,0.116l0.019,3.073m-2.256,-6.9l0,10.804l4.358,-4.213l0,-6.591l-4.358,0m3.201,3.711l0,2.416l-0.945,0.773m-6.132,34.229l0,5.199l2.584,-5.74c0.193,-1.334 0.752,-2.223 1.678,-2.687c0.058,-3.518 0.656,-5.218 1.832,-5.122l0,-10.881l4.049,-3.982c0.984,0.175 2.063,-0.463 3.201,-1.913l1.813,-1.932l0.173,-4.349m-0.154,-1.236l0.154,1.236m0,0l-4.879,5.663c-0.713,0.367 -1.311,0.367 -1.832,0l-3.509,3.904l0,10.649c-0.964,0.271 -1.446,0.733 -1.466,1.372l0,3.537c-0.713,0.058 -1.312,0.58 -1.832,1.604l-1.061,3.209l-0.752,1.469m13.808,-43.583l1.369,10.939m-0.405,-15.887l6.421,0l0.482,48.067a8.82,8.82 0 0 0 -1.331,-2.358l-0.405,-2.474c-0.135,-0.773 -0.579,-1.353 -1.331,-1.721c0.212,-1.681 -0.424,-3.633 -1.947,-5.816l0,-30.924l-1.889,-4.774m-27.46,0.058l6.788,0m1.678,26.247c-0.174,-1.643 -0.579,-2.493 -1.253,-2.551m3.239,5.875l0,0.734m-1.292,-2.144c0.54,0.27 0.964,0.734 1.292,1.41m0,0.734l0.154,-0.367c-0.058,-0.135 -0.096,-0.252 -0.154,-0.367m-3.24,-5.875c0.289,1.564 0.713,2.415 1.253,2.551m0.001,0c0.887,0.406 1.118,1.043 0.694,1.914m3.529,20.312l-2.237,4.349l0,-22.517m0,0l-8.851,20.236c-1.832,0.637 -2.738,1.701 -2.757,3.208c-2.526,0.966 -3.895,2.377 -4.126,4.213l-6.248,5.045l1.812,-3.942m18.878,-30.904l-9.005,20.988c-1.601,0.252 -2.622,1.373 -3.066,3.363c-2.449,0.869 -3.606,2.127 -3.509,3.77l-3.298,2.783m88.26,-9.877c0.193,0.059 0.385,0.097 0.598,0.116l0,-19.424l2.16,5.624m13.419,-15.925c-0.172,1.141 -0.52,1.798 -1.061,1.952l-0.48,2.416l-3.955,0m-1.984,0l1.984,0m0,0l0,1.584l5.516,0.097m-23.506,12.428c0.713,0.444 1.196,1.023 1.408,1.72c0.096,1.643 0.887,2.996 2.391,4.02c0.059,3.034 1.234,4.832 3.51,5.393m-21.251,-1.644l2.179,1.816c1.369,-1.024 3.047,-1.662 5.014,-1.932c0.907,-1.644 2.333,-2.533 4.242,-2.668c0.887,-1.682 2.198,-2.938 3.954,-3.808l0,-0.677l-3.954,0m2.507,-2.22l-5.052,0m2.545,2.222l2.507,-2.222m7.309,11.132c0.02,2.029 1.002,3.267 2.969,3.73l-0.211,-17.414m-12.574,4.774c-0.81,1.798 -2.313,3.055 -4.531,3.769c-1.272,1.624 -2.584,2.319 -3.953,2.069l-2.314,1.256a1.964,1.964 0 0 1 -0.636,0.174m-2.257,-23.889l-0.058,-0.058m0.058,0.058l0.617,0.521l-0.424,18.419l-1.118,1.198c-0.83,0.696 -0.83,1.334 0,1.934l1.215,1.062c0.694,0.541 1.35,0.792 1.967,0.754m-17.028,2.223l0,4.077a44.679,44.679 0 0 0 5.958,-6.146l1.581,0l3.085,-5.798c0.309,-0.405 0.617,-0.657 0.926,-0.716l0.675,-3.343c0.289,-0.329 0.578,-0.464 0.868,-0.426l1.967,-6.958l-0.29,-6.803m-1.503,0.002l0,-0.039m-13.267,26.15a56.615,56.615 0 0 0 4.069,-4.001c0.521,-0.561 1.099,-0.792 1.735,-0.657a36.084,36.084 0 0 0 3.471,-5.895l0.771,-0.58l0.54,-3.285c0.366,-0.291 0.655,-0.31 0.906,-0.059l1.986,-7.595l-0.212,-4.04m0.001,0.001l-0.019,-0.367l0,-0.097c-0.02,-0.058 -0.02,-0.097 -0.02,-0.154c-0.02,-0.136 -0.02,-0.252 -0.02,-0.367m0.56,0.154c0.116,0.116 0.251,0.231 0.424,0.329l0.521,0.444m-17.586,18.361c0.636,1.334 0.926,2.648 0.868,3.924l0,5.605c0.675,-0.562 1.35,-1.122 2.005,-1.721m-4.454,2.687l1.581,2.706l0,-13.201m8.06,-30.653l-0.097,17.781m25.763,-8.408l0.116,17.376m-16.256,-14.457c-0.386,-0.368 -0.694,-0.618 -0.945,-0.773"/>
 </g>
</svg>